Coordinates
version=1
nRows=21
nColumns=22
inDegrees=yes

Units are S.I. units (second, meters, Newtons, ...)
If the header above contains a line with 'inDegrees', this indicates whether rotational values are in degrees (yes) or radians (no).

endheader
time	pelvis_tilt	pelvis_list	pelvis_rotation	pelvis_tx	pelvis_ty	pelvis_tz	hip_flexion_r	hip_adduction_r	hip_rotation_r	knee_angle_r	ankle_angle_r	subtalar_angle_r	hip_flexion_l	hip_adduction_l	hip_rotation_l	knee_angle_l	ankle_angle_l	subtalar_angle_l	lumbar_extension	lumbar_bending	lumbar_rotation
      2.53000000	      2.38069711	     -0.27703357	      4.09474274	     -0.51565173	      0.90185569	      0.01770777	     22.89235221	      0.63124018	     -9.48504479	    -10.86528448	     -4.67041895	      7.18190698	    -14.42479132	      1.45568570	     -6.66005678	    -16.77424651	     16.93880355	     -1.37772383	    -10.26920104	     -2.88238922	    -11.37457329
      2.54000000	      2.38306978	     -0.55533496	      4.09275551	     -0.50492077	      0.90084239	      0.01844369	     22.97106552	      0.95255365	     -9.54104296	    -12.13199976	     -4.81643283	      6.40482683	    -14.83225346	      1.02671549	     -6.66795443	    -17.36564371	     16.75028464	     -1.18359825	    -10.12160505	     -2.58198733	    -11.18917433
      2.55000000	      2.35589511	     -0.88061695	      4.05525646	     -0.49398096	      0.90005702	      0.01932080	     23.06803455	      1.34495516	     -9.61620033	    -13.44166390	     -5.06006495	      5.45762488	    -15.17185806	      0.55047377	     -6.64640727	    -18.02780250	     16.41100017	     -0.94606434	     -9.91618908	     -2.23576169	    -10.99680387
      2.56000000	      2.30202969	     -1.26382284	      3.98765322	     -0.48287662	      0.89953144	      0.02034448	     23.16293820	      1.82353459	     -9.68600430	    -14.71933976	     -5.35091126	      4.44458205	    -15.40055334	      0.00831959	     -6.60835495	    -18.84259208	     15.91623289	     -0.67787033	     -9.66457104	     -1.83279568	    -10.75665997
      2.57000000	      2.22807980	     -1.67962565	      3.88632510	     -0.47163451	      0.89930419	      0.02150792	     23.24661075	      2.36378410	     -9.72189839	    -15.94653126	     -5.64650131	      3.39577318	    -15.51674783	     -0.56966506	     -6.54252360	    -19.81710414	     15.22410642	     -0.37382398	     -9.38094671	     -1.40185013	    -10.48316028
      2.58000000	      2.13679908	     -2.11853146	      3.73950029	     -0.46027360	      0.89938312	      0.02280226	     23.31345169	      2.95839346	     -9.69605145	    -17.11796964	     -5.91780395	      2.40670551	    -15.50956628	     -1.16758478	     -6.45802476	    -20.97054117	     14.33507627	     -0.05707519	     -9.06998380	     -0.95048456	    -10.17248573
      2.59000000	      2.04170606	     -2.55605726	      3.55573852	     -0.44884702	      0.89979179	      0.02420378	     23.32138346	      3.58568710	     -9.54320093	    -18.18463411	     -6.14216417	      1.56746638	    -15.36856921	     -1.76062435	     -6.33431836	    -22.33489452	     13.19270508	      0.23956420	     -8.75493906	     -0.50664251	     -9.83158994
      2.60000000	      1.96951836	     -2.92602357	      3.35060685	     -0.43736454	      0.90051489	      0.02563523	     23.27616493	      4.15079603	     -9.38091253	    -19.24893113	     -6.11191512	      0.66435869	    -15.12516353	     -2.27703339	     -6.14348794	    -23.88594970	     11.75847580	      0.64018183	     -8.47047838	     -0.13874805	     -9.50063770
      2.61000000	      1.91370229	     -3.27664724	      3.10388584	     -0.42586956	      0.90151583	      0.02713384	     23.13219833	      4.72514160	     -9.11084952	    -20.18630550	     -6.01579028	     -0.00304370	    -14.74710409	     -2.76594740	     -5.94400954	    -25.65993163	     10.06196274	      1.00961707	     -8.20679215	      0.20458498	     -9.12770804
      2.62000000	      1.88612946	     -3.57834919	      2.82749072	     -0.41441419	      0.90275468	      0.02866033	     22.87896610	      5.26756953	     -8.77864812	    -21.00550946	     -5.79866683	     -0.55471162	    -14.24000790	     -3.19809993	     -5.72387135	    -27.64605868	      8.07733106	      1.41739748	     -7.98223857	      0.49161679	     -8.73280422
      2.63000000	      1.89377146	     -3.82596899	      2.51656631	     -0.40305278	      0.90418299	      0.03020792	     22.50745072	      5.77176306	     -8.39134017	    -21.69519523	     -5.52258797	     -0.98947831	    -13.60906958	     -3.56972189	     -5.51050223	    -29.83095584	      5.80937259	      1.85196240	     -7.81035628	      0.71693492	     -8.30742726
      2.64000000	      1.91965325	     -4.02076097	      2.20072263	     -0.39182241	      0.90569887	      0.03172610	     22.03716393	      6.22392437	     -7.98951218	    -22.25495355	     -5.09978038	     -1.39737440	    -12.83270399	     -3.88721824	     -5.26582237	    -32.19939350	      3.31267778	      2.40382135	     -7.67122432	      0.88115931	     -7.88183738
      2.65000000	      1.95560579	     -4.16845689	      1.87292433	     -0.38075007	      0.90724321	      0.03322028	     21.48220253	      6.62881435	     -7.57449494	    -22.68395678	     -4.58029258	     -1.76185588	    -11.91416964	     -4.15518863	     -5.00348291	    -34.72080149	      0.63628676	      3.04796560	     -7.55665434	      0.98975085	     -7.42481193
      2.66000000	      2.01919815	     -4.25160737	      1.52113460	     -0.36990453	      0.90880419	      0.03469810	     20.84938519	      6.96686509	     -7.14113408	    -23.01605934	     -4.08413071	     -2.03874572	    -10.87676261	     -4.36401057	     -4.79210294	    -37.37826195	     -2.17078618	      3.64656335	     -7.50018337	      1.02033919	     -6.94243678
      2.67000000	      2.08406664	     -4.29154922	      1.18022983	     -0.35929820	      0.91028442	      0.03613107	     20.18338742	      7.24677499	     -6.71912681	    -23.28153921	     -3.50468434	     -2.28616978	     -9.69656570	     -4.53967117	     -4.57742465	    -40.15565478	     -4.98752087	      4.25439347	     -7.46781646	      0.99523371	     -6.46540836
      2.68000000	      2.13054794	     -4.30072169	      0.85419872	     -0.34894816	      0.91163043	      0.03750963	     19.51556721	      7.47493994	     -6.33398696	    -23.48939173	     -2.84319803	     -2.51390824	     -8.36198279	     -4.69775672	     -4.36929495	    -43.03656542	     -7.73447604	      4.82999447	     -7.44172595	      0.92983009	     -5.97094114
      2.69000000	      2.18153521	     -4.28247779	      0.53745083	     -0.33888737	      0.91287392	      0.03886931	     18.82946976	      7.65883942	     -5.97586625	    -23.64504767	     -2.21400828	     -2.69251097	     -6.90666086	     -4.86164958	     -4.24140317	    -45.99502816	    -10.33705901	      5.22759698	     -7.45622555	      0.82194711	     -5.47208839
      2.70000000	      2.24416747	     -4.26607904	      0.24171610	     -0.32910909	      0.91401740	      0.04020714	     18.12219143	      7.82363106	     -5.67906460	    -23.75396889	     -1.62593646	     -2.83495820	     -5.35477044	     -5.07209335	     -4.19543793	    -48.99067959	    -12.71385700	      5.47384840	     -7.52131256	      0.70640536	     -4.97764101
      2.71000000	      2.24476054	     -4.26408362	     -0.02434143	     -0.31960131	      0.91494687	      0.04150710	     17.47059087	      7.98162248	     -5.44169289	    -23.81450064	     -0.95409327	     -2.98615418	     -3.64102435	     -5.33176247	     -4.17654026	    -51.98740997	    -14.70912333	      5.62372986	     -7.54416234	      0.59922970	     -4.46469052
      2.72000000	      2.27312509	     -4.28428639	     -0.27937449	     -0.31032552	      0.91585023	      0.04280641	     16.76850340	      8.15056920	     -5.24502519	    -23.80880616	     -0.34887434	     -3.10726574	     -1.90519104	     -5.65651949	     -4.23240880	    -54.88949397	    -16.30920685	      5.67316780	     -7.63035303	      0.50766614	     -3.95440161
      2.73000000	      2.29512118	     -4.31557386	     -0.52776655	     -0.30122947	      0.91671355	      0.04406853	     16.04943768	      8.31609727	     -5.08645014	    -23.73859842	      0.22853451	     -3.22023120	     -0.13961304	     -6.01107591	     -4.31649811	    -57.63224671	    -17.43846366	      5.64416094	     -7.72926970	      0.42415757	     -3.41115970
